<svg xmlns="http://www.w3.org/2000/svg" xmlns:xlink="http://www.w3.org/1999/xlink" width="690" zoomAndPan="magnify" viewBox="0 0 517.5 517.499968" height="690" preserveAspectRatio="xMidYMid meet" version="1.0"><defs><clipPath id="51f5e591c5"><path d="M 83.3125 133.320312 L 433.972656 133.320312 L 433.972656 383.578125 L 83.3125 383.578125 Z M 83.3125 133.320312 " clip-rule="nonzero"/></clipPath></defs><g clip-path="url(#51f5e591c5)"><path fill="#000000" d="M 392.226562 133.363281 L 125.058594 133.363281 C 123.691406 133.367188 122.328125 133.433594 120.964844 133.570312 C 119.605469 133.703125 118.257812 133.90625 116.914062 134.171875 C 115.574219 134.4375 114.25 134.769531 112.941406 135.167969 C 111.636719 135.566406 110.351562 136.023438 109.085938 136.546875 C 107.824219 137.070312 106.589844 137.65625 105.386719 138.300781 C 104.179688 138.941406 103.011719 139.644531 101.875 140.402344 C 100.738281 141.160156 99.640625 141.972656 98.585938 142.839844 C 97.527344 143.707031 96.515625 144.621094 95.550781 145.585938 C 94.582031 146.554688 93.667969 147.5625 92.800781 148.617188 C 91.933594 149.671875 91.117188 150.769531 90.359375 151.902344 C 89.597656 153.039062 88.898438 154.207031 88.253906 155.410156 C 87.605469 156.617188 87.023438 157.847656 86.5 159.109375 C 85.976562 160.371094 85.515625 161.652344 85.117188 162.960938 C 84.71875 164.265625 84.386719 165.589844 84.121094 166.925781 C 83.851562 168.265625 83.652344 169.613281 83.515625 170.972656 C 83.382812 172.332031 83.3125 173.695312 83.3125 175.058594 L 83.3125 341.839844 C 83.3125 343.203125 83.382812 344.566406 83.515625 345.925781 C 83.652344 347.28125 83.851562 348.632812 84.121094 349.96875 C 84.386719 351.308594 84.71875 352.632812 85.117188 353.9375 C 85.515625 355.242188 85.976562 356.527344 86.5 357.789062 C 87.023438 359.050781 87.605469 360.28125 88.253906 361.484375 C 88.898438 362.691406 89.597656 363.859375 90.359375 364.996094 C 91.117188 366.128906 91.933594 367.222656 92.800781 368.28125 C 93.667969 369.335938 94.582031 370.34375 95.550781 371.308594 C 96.515625 372.277344 97.527344 373.191406 98.585938 374.058594 C 99.640625 374.925781 100.738281 375.738281 101.875 376.496094 C 103.011719 377.253906 104.179688 377.957031 105.386719 378.597656 C 106.589844 379.242188 107.824219 379.828125 109.085938 380.351562 C 110.351562 380.871094 111.636719 381.332031 112.941406 381.730469 C 114.25 382.125 115.574219 382.457031 116.914062 382.726562 C 118.257812 382.992188 119.605469 383.195312 120.964844 383.328125 C 122.328125 383.464844 123.691406 383.53125 125.058594 383.535156 L 392.226562 383.535156 C 393.59375 383.53125 394.957031 383.464844 396.316406 383.328125 C 397.679688 383.195312 399.027344 382.992188 400.367188 382.726562 C 401.710938 382.457031 403.035156 382.125 404.339844 381.730469 C 405.648438 381.332031 406.933594 380.871094 408.195312 380.351562 C 409.460938 379.828125 410.691406 379.242188 411.898438 378.597656 C 413.105469 377.957031 414.273438 377.253906 415.410156 376.496094 C 416.546875 375.738281 417.644531 374.925781 418.699219 374.058594 C 419.757812 373.191406 420.769531 372.277344 421.734375 371.308594 C 422.699219 370.34375 423.617188 369.335938 424.484375 368.28125 C 425.351562 367.222656 426.164062 366.128906 426.925781 364.996094 C 427.683594 363.859375 428.386719 362.691406 429.03125 361.484375 C 429.675781 360.28125 430.261719 359.050781 430.785156 357.789062 C 431.308594 356.527344 431.769531 355.242188 432.167969 353.9375 C 432.5625 352.632812 432.898438 351.308594 433.164062 349.96875 C 433.433594 348.632812 433.632812 347.28125 433.769531 345.925781 C 433.902344 344.566406 433.972656 343.203125 433.972656 341.839844 L 433.972656 175.058594 C 433.972656 173.695312 433.902344 172.332031 433.769531 170.972656 C 433.632812 169.613281 433.433594 168.265625 433.164062 166.925781 C 432.898438 165.589844 432.5625 164.265625 432.167969 162.960938 C 431.769531 161.652344 431.308594 160.371094 430.785156 159.109375 C 430.261719 157.847656 429.675781 156.617188 429.03125 155.410156 C 428.386719 154.207031 427.683594 153.039062 426.925781 151.902344 C 426.164062 150.769531 425.351562 149.671875 424.484375 148.617188 C 423.617188 147.5625 422.699219 146.554688 421.734375 145.585938 C 420.769531 144.621094 419.757812 143.707031 418.699219 142.839844 C 417.644531 141.972656 416.546875 141.160156 415.410156 140.402344 C 414.273438 139.644531 413.105469 138.941406 411.898438 138.300781 C 410.691406 137.65625 409.460938 137.070312 408.195312 136.546875 C 406.933594 136.023438 405.648438 135.566406 404.339844 135.167969 C 403.035156 134.769531 401.710938 134.4375 400.367188 134.171875 C 399.027344 133.90625 397.679688 133.703125 396.316406 133.570312 C 394.957031 133.433594 393.59375 133.367188 392.226562 133.363281 Z M 417.273438 341.839844 C 417.273438 342.65625 417.234375 343.476562 417.152344 344.289062 C 417.070312 345.105469 416.949219 345.914062 416.789062 346.71875 C 416.628906 347.519531 416.429688 348.3125 416.191406 349.097656 C 415.953125 349.882812 415.675781 350.652344 415.359375 351.40625 C 415.046875 352.164062 414.695312 352.902344 414.308594 353.625 C 413.921875 354.347656 413.5 355.050781 413.042969 355.730469 C 412.589844 356.410156 412.101562 357.070312 411.582031 357.703125 C 411.058594 358.335938 410.511719 358.941406 409.929688 359.519531 C 409.351562 360.101562 408.742188 360.648438 408.109375 361.167969 C 407.476562 361.6875 406.816406 362.175781 406.136719 362.632812 C 405.453125 363.085938 404.753906 363.507812 404.027344 363.894531 C 403.304688 364.28125 402.566406 364.628906 401.808594 364.945312 C 401.050781 365.257812 400.28125 365.535156 399.496094 365.773438 C 398.710938 366.011719 397.917969 366.210938 397.113281 366.371094 C 396.308594 366.53125 395.496094 366.652344 394.679688 366.734375 C 393.867188 366.8125 393.046875 366.855469 392.226562 366.855469 L 125.058594 366.855469 C 124.238281 366.855469 123.417969 366.8125 122.601562 366.734375 C 121.785156 366.652344 120.976562 366.53125 120.171875 366.371094 C 119.367188 366.210938 118.574219 366.011719 117.789062 365.773438 C 117.003906 365.535156 116.234375 365.257812 115.476562 364.945312 C 114.71875 364.628906 113.976562 364.28125 113.253906 363.894531 C 112.53125 363.507812 111.828125 363.085938 111.148438 362.632812 C 110.464844 362.175781 109.808594 361.6875 109.175781 361.167969 C 108.539062 360.648438 107.933594 360.101562 107.355469 359.519531 C 106.773438 358.941406 106.222656 358.335938 105.703125 357.703125 C 105.183594 357.070312 104.695312 356.410156 104.238281 355.730469 C 103.785156 355.050781 103.363281 354.347656 102.976562 353.625 C 102.589844 352.902344 102.238281 352.164062 101.921875 351.40625 C 101.609375 350.652344 101.332031 349.882812 101.09375 349.097656 C 100.855469 348.3125 100.65625 347.519531 100.496094 346.71875 C 100.335938 345.914062 100.214844 345.105469 100.132812 344.289062 C 100.050781 343.476562 100.011719 342.65625 100.007812 341.839844 L 100.007812 175.058594 C 100.011719 174.238281 100.050781 173.421875 100.132812 172.609375 C 100.214844 171.792969 100.335938 170.984375 100.496094 170.179688 C 100.65625 169.378906 100.855469 168.582031 101.09375 167.800781 C 101.332031 167.015625 101.609375 166.246094 101.921875 165.488281 C 102.238281 164.734375 102.589844 163.992188 102.976562 163.273438 C 103.363281 162.550781 103.785156 161.847656 104.238281 161.167969 C 104.695312 160.484375 105.183594 159.828125 105.703125 159.195312 C 106.222656 158.5625 106.773438 157.957031 107.355469 157.378906 C 107.933594 156.796875 108.539062 156.25 109.175781 155.730469 C 109.808594 155.210938 110.464844 154.722656 111.148438 154.265625 C 111.828125 153.8125 112.53125 153.390625 113.253906 153.003906 C 113.976562 152.617188 114.71875 152.269531 115.476562 151.953125 C 116.234375 151.640625 117.003906 151.363281 117.789062 151.125 C 118.574219 150.886719 119.367188 150.6875 120.171875 150.527344 C 120.976562 150.367188 121.785156 150.246094 122.601562 150.164062 C 123.417969 150.085938 124.238281 150.042969 125.058594 150.042969 L 392.226562 150.042969 C 393.046875 150.042969 393.867188 150.085938 394.679688 150.164062 C 395.496094 150.246094 396.308594 150.367188 397.113281 150.527344 C 397.917969 150.6875 398.710938 150.886719 399.496094 151.125 C 400.28125 151.363281 401.050781 151.640625 401.808594 151.953125 C 402.566406 152.269531 403.304688 152.617188 404.027344 153.003906 C 404.753906 153.390625 405.453125 153.8125 406.136719 154.265625 C 406.816406 154.722656 407.476562 155.210938 408.109375 155.730469 C 408.742188 156.25 409.351562 156.796875 409.929688 157.378906 C 410.511719 157.957031 411.058594 158.5625 411.582031 159.195312 C 412.101562 159.828125 412.589844 160.484375 413.042969 161.167969 C 413.5 161.847656 413.921875 162.550781 414.308594 163.273438 C 414.695312 163.992188 415.046875 164.734375 415.359375 165.488281 C 415.675781 166.246094 415.953125 167.015625 416.191406 167.800781 C 416.429688 168.582031 416.628906 169.378906 416.789062 170.179688 C 416.949219 170.984375 417.070312 171.792969 417.152344 172.609375 C 417.234375 173.421875 417.273438 174.238281 417.273438 175.058594 Z M 191.847656 266.789062 C 193.214844 266.789062 194.582031 266.722656 195.941406 266.585938 C 197.300781 266.453125 198.652344 266.253906 199.992188 265.988281 C 201.335938 265.71875 202.660156 265.390625 203.96875 264.992188 C 205.277344 264.597656 206.5625 264.136719 207.824219 263.613281 C 209.089844 263.089844 210.324219 262.507812 211.527344 261.863281 C 212.734375 261.222656 213.90625 260.519531 215.042969 259.761719 C 216.179688 259.003906 217.277344 258.191406 218.332031 257.324219 C 219.390625 256.457031 220.402344 255.542969 221.367188 254.574219 C 222.335938 253.609375 223.25 252.601562 224.117188 251.542969 C 224.988281 250.488281 225.800781 249.394531 226.558594 248.257812 C 227.320312 247.121094 228.019531 245.953125 228.664062 244.746094 C 229.308594 243.542969 229.894531 242.3125 230.417969 241.050781 C 230.941406 239.789062 231.402344 238.503906 231.796875 237.195312 C 232.195312 235.890625 232.527344 234.566406 232.792969 233.226562 C 233.058594 231.886719 233.261719 230.539062 233.394531 229.179688 C 233.527344 227.820312 233.59375 226.457031 233.59375 225.09375 C 233.59375 223.726562 233.527344 222.363281 233.394531 221.007812 C 233.261719 219.648438 233.058594 218.296875 232.792969 216.957031 C 232.527344 215.621094 232.195312 214.296875 231.796875 212.988281 C 231.402344 211.683594 230.941406 210.398438 230.417969 209.136719 C 229.894531 207.875 229.308594 206.640625 228.664062 205.4375 C 228.019531 204.234375 227.320312 203.0625 226.558594 201.929688 C 225.800781 200.792969 224.988281 199.699219 224.117188 198.640625 C 223.25 197.585938 222.335938 196.574219 221.367188 195.609375 C 220.402344 194.644531 219.390625 193.730469 218.332031 192.863281 C 217.277344 191.996094 216.179688 191.183594 215.042969 190.425781 C 213.90625 189.667969 212.734375 188.964844 211.527344 188.320312 C 210.324219 187.675781 209.089844 187.09375 207.824219 186.570312 C 206.5625 186.050781 205.277344 185.589844 203.96875 185.195312 C 202.660156 184.796875 201.335938 184.464844 199.992188 184.199219 C 198.652344 183.933594 197.300781 183.734375 195.941406 183.597656 C 194.582031 183.464844 193.214844 183.398438 191.847656 183.398438 C 190.480469 183.398438 189.117188 183.464844 187.757812 183.597656 C 186.398438 183.734375 185.046875 183.933594 183.707031 184.199219 C 182.363281 184.464844 181.039062 184.796875 179.730469 185.195312 C 178.421875 185.589844 177.136719 186.050781 175.875 186.570312 C 174.609375 187.09375 173.375 187.675781 172.171875 188.320312 C 170.964844 188.964844 169.792969 189.667969 168.65625 190.425781 C 167.519531 191.183594 166.421875 191.996094 165.367188 192.863281 C 164.308594 193.730469 163.296875 194.644531 162.332031 195.609375 C 161.363281 196.574219 160.445312 197.585938 159.578125 198.640625 C 158.710938 199.699219 157.898438 200.792969 157.140625 201.929688 C 156.378906 203.0625 155.679688 204.234375 155.035156 205.4375 C 154.390625 206.640625 153.804688 207.875 153.28125 209.136719 C 152.757812 210.398438 152.296875 211.683594 151.902344 212.988281 C 151.503906 214.296875 151.171875 215.621094 150.90625 216.957031 C 150.640625 218.296875 150.4375 219.648438 150.304688 221.007812 C 150.171875 222.363281 150.105469 223.726562 150.105469 225.09375 C 150.105469 226.457031 150.171875 227.820312 150.308594 229.179688 C 150.445312 230.539062 150.644531 231.886719 150.914062 233.226562 C 151.179688 234.5625 151.511719 235.886719 151.910156 237.191406 C 152.308594 238.5 152.769531 239.78125 153.292969 241.042969 C 153.816406 242.304688 154.398438 243.535156 155.042969 244.742188 C 155.691406 245.945312 156.390625 247.113281 157.152344 248.25 C 157.910156 249.382812 158.722656 250.476562 159.589844 251.535156 C 160.457031 252.589844 161.375 253.597656 162.34375 254.566406 C 163.308594 255.53125 164.320312 256.445312 165.375 257.3125 C 166.433594 258.179688 167.53125 258.992188 168.667969 259.75 C 169.800781 260.507812 170.972656 261.210938 172.179688 261.851562 C 173.382812 262.496094 174.617188 263.082031 175.878906 263.605469 C 177.144531 264.125 178.429688 264.585938 179.734375 264.984375 C 181.042969 265.382812 182.367188 265.714844 183.707031 265.980469 C 185.046875 266.246094 186.398438 266.449219 187.757812 266.582031 C 189.117188 266.71875 190.484375 266.785156 191.847656 266.789062 Z M 191.847656 200.074219 C 192.667969 200.074219 193.488281 200.117188 194.304688 200.195312 C 195.121094 200.277344 195.929688 200.398438 196.734375 200.558594 C 197.539062 200.714844 198.335938 200.914062 199.121094 201.152344 C 199.90625 201.390625 200.675781 201.667969 201.433594 201.980469 C 202.191406 202.292969 202.933594 202.644531 203.65625 203.03125 C 204.378906 203.417969 205.082031 203.835938 205.765625 204.292969 C 206.445312 204.746094 207.105469 205.234375 207.738281 205.753906 C 208.375 206.273438 208.980469 206.824219 209.5625 207.402344 C 210.140625 207.984375 210.691406 208.589844 211.210938 209.222656 C 211.730469 209.855469 212.21875 210.511719 212.675781 211.195312 C 213.132812 211.875 213.550781 212.578125 213.9375 213.300781 C 214.324219 214.023438 214.675781 214.761719 214.988281 215.519531 C 215.304688 216.277344 215.578125 217.046875 215.816406 217.832031 C 216.054688 218.613281 216.253906 219.410156 216.414062 220.210938 C 216.574219 221.015625 216.695312 221.824219 216.777344 222.640625 C 216.855469 223.457031 216.898438 224.273438 216.898438 225.09375 C 216.898438 225.914062 216.855469 226.730469 216.777344 227.546875 C 216.695312 228.359375 216.574219 229.171875 216.414062 229.972656 C 216.253906 230.777344 216.054688 231.570312 215.816406 232.355469 C 215.578125 233.140625 215.304688 233.910156 214.988281 234.667969 C 214.675781 235.421875 214.324219 236.164062 213.9375 236.886719 C 213.550781 237.609375 213.132812 238.308594 212.675781 238.992188 C 212.21875 239.671875 211.730469 240.332031 211.210938 240.964844 C 210.691406 241.597656 210.140625 242.203125 209.5625 242.78125 C 208.980469 243.363281 208.375 243.910156 207.738281 244.429688 C 207.105469 244.953125 206.445312 245.4375 205.765625 245.894531 C 205.082031 246.347656 204.378906 246.769531 203.65625 247.15625 C 202.933594 247.542969 202.191406 247.890625 201.433594 248.207031 C 200.675781 248.519531 199.90625 248.796875 199.121094 249.03125 C 198.335938 249.269531 197.539062 249.46875 196.734375 249.628906 C 195.929688 249.789062 195.121094 249.910156 194.304688 249.988281 C 193.488281 250.070312 192.667969 250.109375 191.847656 250.109375 C 191.027344 250.109375 190.210938 250.070312 189.394531 249.988281 C 188.578125 249.910156 187.769531 249.789062 186.964844 249.628906 C 186.160156 249.46875 185.363281 249.269531 184.578125 249.03125 C 183.792969 248.796875 183.023438 248.519531 182.265625 248.207031 C 181.507812 247.890625 180.765625 247.542969 180.042969 247.15625 C 179.320312 246.769531 178.617188 246.347656 177.933594 245.894531 C 177.25 245.4375 176.59375 244.953125 175.960938 244.429688 C 175.324219 243.910156 174.71875 243.363281 174.136719 242.78125 C 173.558594 242.203125 173.007812 241.597656 172.488281 240.964844 C 171.96875 240.332031 171.480469 239.671875 171.023438 238.992188 C 170.566406 238.308594 170.148438 237.609375 169.761719 236.886719 C 169.375 236.164062 169.023438 235.421875 168.707031 234.667969 C 168.394531 233.910156 168.117188 233.140625 167.878906 232.355469 C 167.644531 231.570312 167.445312 230.777344 167.285156 229.972656 C 167.125 229.171875 167.003906 228.359375 166.921875 227.546875 C 166.84375 226.730469 166.800781 225.914062 166.800781 225.09375 C 166.804688 224.273438 166.84375 223.457031 166.925781 222.640625 C 167.007812 221.828125 167.128906 221.019531 167.289062 220.214844 C 167.449219 219.410156 167.648438 218.617188 167.886719 217.835938 C 168.125 217.050781 168.402344 216.28125 168.714844 215.523438 C 169.03125 214.765625 169.382812 214.027344 169.769531 213.304688 C 170.15625 212.582031 170.574219 211.882812 171.03125 211.199219 C 171.488281 210.519531 171.976562 209.863281 172.496094 209.230469 C 173.015625 208.597656 173.566406 207.992188 174.144531 207.410156 C 174.726562 206.832031 175.332031 206.28125 175.96875 205.761719 C 176.601562 205.242188 177.257812 204.753906 177.941406 204.300781 C 178.621094 203.84375 179.324219 203.425781 180.046875 203.039062 C 180.769531 202.652344 181.511719 202.300781 182.269531 201.988281 C 183.027344 201.675781 183.796875 201.398438 184.582031 201.160156 C 185.367188 200.921875 186.160156 200.722656 186.964844 200.5625 C 187.769531 200.402344 188.578125 200.28125 189.394531 200.199219 C 190.210938 200.117188 191.03125 200.078125 191.847656 200.074219 Z M 250.292969 325.160156 C 250.292969 325.707031 250.238281 326.25 250.132812 326.789062 C 250.027344 327.324219 249.867188 327.847656 249.65625 328.351562 C 249.449219 328.859375 249.191406 329.339844 248.886719 329.792969 C 248.582031 330.25 248.234375 330.671875 247.847656 331.058594 C 247.460938 331.445312 247.039062 331.789062 246.582031 332.09375 C 246.125 332.398438 245.644531 332.65625 245.140625 332.863281 C 244.632812 333.074219 244.109375 333.234375 243.574219 333.339844 C 243.035156 333.445312 242.492188 333.5 241.945312 333.5 C 241.394531 333.5 240.851562 333.445312 240.316406 333.339844 C 239.777344 333.234375 239.253906 333.074219 238.75 332.863281 C 238.242188 332.65625 237.761719 332.398438 237.304688 332.09375 C 236.851562 331.789062 236.429688 331.445312 236.039062 331.058594 C 235.652344 330.671875 235.304688 330.25 235 329.792969 C 234.699219 329.339844 234.441406 328.859375 234.230469 328.351562 C 234.019531 327.847656 233.863281 327.324219 233.753906 326.789062 C 233.648438 326.25 233.59375 325.707031 233.59375 325.160156 C 233.59375 324.34375 233.554688 323.523438 233.472656 322.710938 C 233.390625 321.894531 233.269531 321.085938 233.109375 320.28125 C 232.949219 319.480469 232.75 318.683594 232.511719 317.902344 C 232.273438 317.117188 231.996094 316.347656 231.679688 315.589844 C 231.367188 314.835938 231.015625 314.09375 230.628906 313.375 C 230.242188 312.652344 229.820312 311.949219 229.367188 311.269531 C 228.910156 310.585938 228.421875 309.929688 227.902344 309.296875 C 227.378906 308.664062 226.832031 308.058594 226.25 307.480469 C 225.671875 306.898438 225.0625 306.351562 224.429688 305.832031 C 223.796875 305.3125 223.136719 304.824219 222.457031 304.367188 C 221.773438 303.914062 221.074219 303.492188 220.347656 303.105469 C 219.625 302.71875 218.886719 302.371094 218.128906 302.054688 C 217.371094 301.742188 216.601562 301.464844 215.816406 301.226562 C 215.03125 300.988281 214.238281 300.789062 213.433594 300.628906 C 212.628906 300.46875 211.816406 300.347656 211 300.265625 C 210.1875 300.1875 209.367188 300.144531 208.546875 300.144531 L 175.152344 300.144531 C 174.332031 300.144531 173.511719 300.1875 172.695312 300.265625 C 171.882812 300.347656 171.070312 300.46875 170.265625 300.628906 C 169.460938 300.789062 168.667969 300.988281 167.882812 301.226562 C 167.097656 301.464844 166.328125 301.742188 165.570312 302.054688 C 164.8125 302.371094 164.074219 302.71875 163.347656 303.105469 C 162.625 303.492188 161.925781 303.914062 161.242188 304.367188 C 160.5625 304.824219 159.902344 305.3125 159.269531 305.832031 C 158.636719 306.351562 158.027344 306.898438 157.449219 307.480469 C 156.867188 308.058594 156.316406 308.664062 155.796875 309.296875 C 155.277344 309.929688 154.789062 310.585938 154.332031 311.269531 C 153.878906 311.949219 153.457031 312.652344 153.070312 313.375 C 152.683594 314.09375 152.332031 314.835938 152.019531 315.589844 C 151.703125 316.347656 151.425781 317.117188 151.1875 317.902344 C 150.949219 318.683594 150.75 319.480469 150.589844 320.28125 C 150.429688 321.085938 150.308594 321.894531 150.226562 322.710938 C 150.144531 323.523438 150.105469 324.34375 150.105469 325.160156 C 150.105469 325.707031 150.050781 326.25 149.945312 326.789062 C 149.835938 327.324219 149.679688 327.847656 149.46875 328.351562 C 149.257812 328.859375 149 329.339844 148.695312 329.792969 C 148.390625 330.25 148.046875 330.671875 147.660156 331.058594 C 147.269531 331.445312 146.847656 331.789062 146.394531 332.09375 C 145.9375 332.398438 145.457031 332.65625 144.949219 332.863281 C 144.445312 333.074219 143.921875 333.234375 143.382812 333.339844 C 142.847656 333.445312 142.304688 333.5 141.753906 333.5 C 141.207031 333.5 140.664062 333.445312 140.125 333.339844 C 139.589844 333.234375 139.066406 333.074219 138.558594 332.863281 C 138.054688 332.65625 137.574219 332.398438 137.117188 332.09375 C 136.660156 331.789062 136.238281 331.445312 135.851562 331.058594 C 135.464844 330.671875 135.117188 330.25 134.8125 329.792969 C 134.507812 329.339844 134.25 328.859375 134.042969 328.351562 C 133.832031 327.847656 133.671875 327.324219 133.566406 326.789062 C 133.460938 326.25 133.40625 325.707031 133.40625 325.160156 C 133.40625 323.796875 133.476562 322.433594 133.609375 321.074219 C 133.746094 319.714844 133.945312 318.367188 134.214844 317.027344 C 134.480469 315.691406 134.816406 314.367188 135.210938 313.0625 C 135.609375 311.753906 136.070312 310.472656 136.59375 309.210938 C 137.117188 307.949219 137.703125 306.71875 138.347656 305.511719 C 138.992188 304.308594 139.695312 303.140625 140.453125 302.003906 C 141.210938 300.871094 142.027344 299.777344 142.894531 298.71875 C 143.761719 297.664062 144.675781 296.65625 145.644531 295.6875 C 146.609375 294.722656 147.621094 293.808594 148.679688 292.941406 C 149.734375 292.074219 150.832031 291.261719 151.96875 290.503906 C 153.105469 289.746094 154.273438 289.042969 155.480469 288.402344 C 156.6875 287.757812 157.917969 287.171875 159.183594 286.648438 C 160.445312 286.128906 161.730469 285.667969 163.039062 285.269531 C 164.34375 284.871094 165.667969 284.539062 167.011719 284.273438 C 168.351562 284.007812 169.699219 283.804688 171.0625 283.671875 C 172.421875 283.535156 173.785156 283.46875 175.152344 283.464844 L 208.546875 283.464844 C 209.914062 283.46875 211.277344 283.535156 212.636719 283.671875 C 214 283.804688 215.347656 284.007812 216.6875 284.273438 C 218.03125 284.539062 219.355469 284.871094 220.660156 285.269531 C 221.96875 285.667969 223.253906 286.128906 224.515625 286.648438 C 225.78125 287.171875 227.011719 287.757812 228.21875 288.402344 C 229.425781 289.042969 230.59375 289.746094 231.730469 290.503906 C 232.867188 291.261719 233.964844 292.074219 235.019531 292.941406 C 236.078125 293.808594 237.089844 294.722656 238.054688 295.6875 C 239.019531 296.65625 239.9375 297.664062 240.804688 298.71875 C 241.671875 299.777344 242.484375 300.871094 243.246094 302.003906 C 244.003906 303.140625 244.707031 304.308594 245.351562 305.511719 C 245.996094 306.71875 246.582031 307.949219 247.105469 309.210938 C 247.628906 310.472656 248.089844 311.753906 248.488281 313.0625 C 248.882812 314.367188 249.21875 315.691406 249.484375 317.027344 C 249.753906 318.367188 249.953125 319.714844 250.089844 321.074219 C 250.222656 322.433594 250.292969 323.796875 250.292969 325.160156 Z M 383.878906 233.433594 C 383.878906 233.980469 383.824219 234.523438 383.71875 235.058594 C 383.613281 235.597656 383.453125 236.117188 383.242188 236.625 C 383.035156 237.128906 382.777344 237.609375 382.472656 238.066406 C 382.167969 238.523438 381.820312 238.941406 381.433594 239.328125 C 381.046875 239.71875 380.625 240.0625 380.167969 240.367188 C 379.714844 240.671875 379.230469 240.929688 378.726562 241.136719 C 378.21875 241.347656 377.695312 241.503906 377.160156 241.613281 C 376.621094 241.71875 376.078125 241.769531 375.527344 241.769531 L 308.738281 241.769531 C 308.1875 241.769531 307.644531 241.71875 307.109375 241.609375 C 306.570312 241.503906 306.046875 241.347656 305.542969 241.136719 C 305.035156 240.925781 304.554688 240.667969 304.097656 240.367188 C 303.640625 240.0625 303.21875 239.714844 302.832031 239.328125 C 302.445312 238.941406 302.097656 238.519531 301.792969 238.066406 C 301.488281 237.609375 301.234375 237.128906 301.023438 236.625 C 300.8125 236.117188 300.65625 235.597656 300.546875 235.058594 C 300.441406 234.523438 300.386719 233.980469 300.386719 233.433594 C 300.386719 232.882812 300.441406 232.34375 300.546875 231.804688 C 300.65625 231.269531 300.8125 230.746094 301.023438 230.242188 C 301.234375 229.734375 301.488281 229.253906 301.792969 228.800781 C 302.097656 228.34375 302.445312 227.921875 302.832031 227.535156 C 303.21875 227.148438 303.640625 226.800781 304.097656 226.5 C 304.554688 226.195312 305.035156 225.9375 305.542969 225.726562 C 306.046875 225.519531 306.570312 225.359375 307.109375 225.253906 C 307.644531 225.144531 308.1875 225.09375 308.738281 225.09375 L 375.527344 225.09375 C 376.078125 225.09375 376.621094 225.144531 377.160156 225.253906 C 377.695312 225.359375 378.21875 225.515625 378.726562 225.726562 C 379.230469 225.9375 379.710938 226.191406 380.167969 226.496094 C 380.625 226.800781 381.046875 227.148438 381.433594 227.535156 C 381.820312 227.921875 382.167969 228.34375 382.472656 228.796875 C 382.777344 229.253906 383.035156 229.734375 383.242188 230.238281 C 383.453125 230.746094 383.613281 231.269531 383.71875 231.804688 C 383.824219 232.34375 383.878906 232.882812 383.878906 233.433594 Z M 350.480469 283.464844 C 350.480469 284.011719 350.429688 284.554688 350.324219 285.09375 C 350.214844 285.628906 350.058594 286.152344 349.847656 286.65625 C 349.636719 287.164062 349.382812 287.644531 349.078125 288.101562 C 348.773438 288.554688 348.425781 288.976562 348.039062 289.363281 C 347.648438 289.75 347.226562 290.097656 346.773438 290.402344 C 346.316406 290.707031 345.835938 290.960938 345.328125 291.171875 C 344.820312 291.382812 344.300781 291.539062 343.761719 291.644531 C 343.222656 291.753906 342.679688 291.804688 342.132812 291.804688 L 308.738281 291.804688 C 308.1875 291.804688 307.644531 291.75 307.109375 291.644531 C 306.570312 291.539062 306.046875 291.378906 305.542969 291.171875 C 305.035156 290.960938 304.554688 290.703125 304.097656 290.398438 C 303.640625 290.09375 303.21875 289.75 302.832031 289.363281 C 302.445312 288.976562 302.097656 288.554688 301.792969 288.097656 C 301.488281 287.644531 301.234375 287.164062 301.023438 286.65625 C 300.8125 286.152344 300.65625 285.628906 300.546875 285.09375 C 300.441406 284.554688 300.386719 284.011719 300.386719 283.464844 C 300.386719 282.917969 300.441406 282.375 300.546875 281.839844 C 300.65625 281.300781 300.8125 280.78125 301.023438 280.273438 C 301.234375 279.769531 301.488281 279.289062 301.792969 278.832031 C 302.097656 278.378906 302.445312 277.957031 302.832031 277.570312 C 303.21875 277.183594 303.640625 276.835938 304.097656 276.53125 C 304.554688 276.226562 305.035156 275.972656 305.542969 275.761719 C 306.046875 275.550781 306.570312 275.394531 307.109375 275.289062 C 307.644531 275.179688 308.1875 275.128906 308.738281 275.128906 L 342.132812 275.128906 C 342.679688 275.125 343.222656 275.179688 343.761719 275.285156 C 344.300781 275.394531 344.820312 275.550781 345.328125 275.761719 C 345.835938 275.96875 346.316406 276.226562 346.773438 276.53125 C 347.226562 276.835938 347.648438 277.179688 348.039062 277.566406 C 348.425781 277.957031 348.773438 278.375 349.078125 278.832031 C 349.382812 279.289062 349.636719 279.769531 349.847656 280.273438 C 350.058594 280.78125 350.214844 281.300781 350.324219 281.839844 C 350.429688 282.375 350.480469 282.917969 350.480469 283.464844 Z M 350.480469 283.464844 " fill-opacity="1" fill-rule="nonzero"/></g></svg>